<?xml version="1.0" encoding="UTF-8" standalone="no"?>
<!-- Created with Inkscape (http://www.inkscape.org/) -->

<svg
   xmlns:dc="http://purl.org/dc/elements/1.1/"
   xmlns:cc="http://creativecommons.org/ns#"
   xmlns:rdf="http://www.w3.org/1999/02/22-rdf-syntax-ns#"
   xmlns:svg="http://www.w3.org/2000/svg"
   xmlns="http://www.w3.org/2000/svg"
   xmlns:sodipodi="http://sodipodi.sourceforge.net/DTD/sodipodi-0.dtd"
   xmlns:inkscape="http://www.inkscape.org/namespaces/inkscape"
   width="32.883781mm"
   height="8.3627968mm"
   viewBox="0 0 32.883781 8.3627969"
   version="1.1"
   id="svg8"
   inkscape:version="0.92.3 (unknown)"
   sodipodi:docname="logo.svg">
  <defs
     id="defs2" />
  <sodipodi:namedview
     id="base"
     pagecolor="#ffffff"
     bordercolor="#666666"
     borderopacity="1.0"
     inkscape:pageopacity="0.0"
     inkscape:pageshadow="2"
     inkscape:zoom="5.6"
     inkscape:cx="64.990111"
     inkscape:cy="-16.757932"
     inkscape:document-units="mm"
     inkscape:current-layer="text881"
     showgrid="false"
     inkscape:window-width="1920"
     inkscape:window-height="1021"
     inkscape:window-x="1920"
     inkscape:window-y="27"
     inkscape:window-maximized="1"
     showguides="true"
     fit-margin-top="0"
     fit-margin-left="0"
     fit-margin-right="0"
     fit-margin-bottom="0" />
  <metadata
     id="metadata5">
    <rdf:RDF>
      <cc:Work
         rdf:about="">
        <dc:format>image/svg+xml</dc:format>
        <dc:type
           rdf:resource="http://purl.org/dc/dcmitype/StillImage" />
        <dc:title></dc:title>
      </cc:Work>
    </rdf:RDF>
  </metadata>
  <g
     inkscape:label="Camada 1"
     inkscape:groupmode="layer"
     id="layer1"
     transform="translate(-4.1873661,-21.95336)">
    <g
       aria-label="ESTÃGIO"
       style="font-style:normal;font-weight:normal;font-size:4.81607723px;line-height:1.25;font-family:sans-serif;letter-spacing:0px;word-spacing:0px;fill:#000000;fill-opacity:1;stroke:none;stroke-width:0.12040193"
       id="text881">
      <path
         style="fill:#ffffff;fill-opacity:1;stroke:none;stroke-width:0.03185634"
         d="m 5.0374433,21.95336 c -0.4711472,0 -0.8500772,0.379447 -0.8500772,0.850594 v 6.661609 c 0,0.471148 0.37893,0.850594 0.8500772,0.850594 H 36.220553 c 0.471146,0 0.850593,-0.379446 0.850593,-0.850594 v -6.661609 c 0,-0.471147 -0.379447,-0.850594 -0.850593,-0.850594 z m 19.9982627,1.951819 h 0.818038 l -0.809253,0.654223 H 24.458996 Z M 6.4616459,24.176997 h 3.4034093 v 1.064534 h -2.015897 v 0.490926 h 1.770951 v 1.016476 h -1.770951 v 0.550354 h 2.093929 v 1.065051 H 6.4616459 Z m 3.9408441,0 h 3.690731 v 0.86713 l -1.914095,2.225187 h 2.009697 v 1.095024 h -3.846277 v -0.867647 l 1.914612,-2.225187 H 10.40249 Z m 8.941573,0.567407 c 0.197994,0 0.393242,0.02282 0.585494,0.06873 0.192254,0.04304 0.361637,0.1077 0.507979,0.193786 l -0.262516,0.63252 c -0.286946,-0.154951 -0.565362,-0.232027 -0.835091,-0.232028 -0.169298,0 -0.292528,0.02534 -0.370003,0.077 -0.07748,0.04878 -0.116272,0.113441 -0.116272,0.193787 0,0.08035 0.04564,0.140695 0.137459,0.180868 0.09182,0.04017 0.239652,0.08202 0.443384,0.125056 0.229557,0.04878 0.419229,0.101775 0.568441,0.159164 0.152081,0.05452 0.282668,0.143263 0.391707,0.26665 0.111909,0.120517 0.167432,0.285589 0.167432,0.49506 0,0.180777 -0.04995,0.344584 -0.150379,0.490927 -0.10043,0.146341 -0.251306,0.263996 -0.452168,0.35295 -0.200863,0.08608 -0.444793,0.128674 -0.731739,0.128674 -0.243904,0 -0.480477,-0.02966 -0.710034,-0.08992 -0.229557,-0.06026 -0.416182,-0.140899 -0.559655,-0.241329 l 0.280086,-0.628385 c 0.134865,0.08895 0.291315,0.16097 0.469222,0.21549 0.177906,0.05452 0.352865,0.08165 0.525032,0.08165 0.327119,0 0.490409,-0.0819 0.490409,-0.245463 0,-0.08608 -0.04742,-0.148963 -0.14211,-0.189136 -0.09182,-0.04304 -0.240915,-0.08793 -0.447518,-0.133842 -0.226687,-0.04878 -0.415842,-0.100508 -0.567924,-0.155029 -0.15208,-0.05739 -0.282668,-0.147395 -0.391707,-0.270785 -0.10904,-0.123386 -0.163814,-0.289723 -0.163814,-0.499194 0,-0.183644 0.05046,-0.348717 0.150895,-0.49506 0.100431,-0.149212 0.249525,-0.266866 0.447518,-0.35295 0.200862,-0.08608 0.446056,-0.129191 0.735872,-0.129191 z m 9.007719,0 c 0.281206,0 0.533764,0.04742 0.757575,0.14211 0.223819,0.09469 0.40993,0.230853 0.559142,0.40876 l -0.542087,0.490927 c -0.203732,-0.223818 -0.447661,-0.335897 -0.731739,-0.335897 -0.258249,0 -0.46643,0.07886 -0.624251,0.236678 -0.15782,0.15495 -0.236678,0.36313 -0.236678,0.624251 0,0.166429 0.03575,0.315523 0.107487,0.447518 0.07174,0.129126 0.172148,0.230802 0.301274,0.305408 0.129125,0.07174 0.276954,0.108003 0.443384,0.108003 0.163557,0 0.317481,-0.03322 0.460954,-0.09922 v -0.826306 h 0.752925 v 1.247985 c -0.172167,0.123388 -0.369943,0.218224 -0.593762,0.284221 -0.223819,0.066 -0.447977,0.0987 -0.671794,0.0987 -0.315641,0 -0.599632,-0.06593 -0.852144,-0.197921 -0.252513,-0.134865 -0.45029,-0.320974 -0.593762,-0.559139 -0.143474,-0.238166 -0.215491,-0.507959 -0.215491,-0.809253 0,-0.301293 0.07202,-0.571087 0.215491,-0.809253 0.143472,-0.238165 0.343031,-0.423526 0.598413,-0.555521 0.255382,-0.134865 0.543684,-0.202055 0.865063,-0.202055 z m 4.770767,0 c 0.318511,0 0.603766,0.06719 0.856279,0.202055 0.255384,0.134864 0.454941,0.32149 0.598414,0.559655 0.146343,0.238166 0.219625,0.506695 0.219625,0.805119 0,0.298424 -0.07328,0.566437 -0.219625,0.804602 -0.143473,0.238166 -0.34303,0.424791 -0.598414,0.559656 -0.252513,0.134865 -0.537768,0.202055 -0.856279,0.202055 -0.31851,0 -0.605546,-0.06719 -0.860927,-0.202055 -0.252513,-0.134865 -0.452073,-0.32149 -0.598414,-0.559656 -0.143473,-0.238165 -0.21549,-0.506178 -0.21549,-0.804602 0,-0.298424 0.07202,-0.566953 0.21549,-0.805119 0.146341,-0.238165 0.345901,-0.424791 0.598414,-0.559655 0.255381,-0.134865 0.542417,-0.202055 0.860927,-0.202055 z m -17.845421,0.05995 h 2.363163 v 0.658874 h -1.519287 v 0.507979 h 1.33842 v 0.636654 h -1.33842 v 0.551387 h 1.575098 v 0.658358 h -2.418974 z m 5.348511,0 h 2.698543 v 0.675927 h -0.920874 v 2.337325 h -0.852144 v -2.337325 h -0.925525 z m 3.833357,0 h 0.839226 l 1.334285,3.013252 H 25.74574 l -0.236678,-0.585494 h -1.273824 l -0.236678,0.585494 h -0.869715 z m 5.681308,0 h 0.852143 v 3.013252 h -0.852143 z m 2.982245,0.645955 c -0.15208,0 -0.290023,0.03575 -0.413411,0.107487 -0.123386,0.07174 -0.22075,0.173412 -0.292489,0.305408 -0.07174,0.129126 -0.108003,0.278736 -0.108003,0.448034 0,0.169299 0.03627,0.319658 0.108003,0.451652 0.07174,0.129126 0.169103,0.229537 0.292489,0.301274 0.123388,0.07174 0.261331,0.107487 0.413411,0.107487 0.152083,0 0.28951,-0.03575 0.412896,-0.107487 0.123386,-0.07174 0.221268,-0.172148 0.293005,-0.301274 0.07174,-0.131994 0.107487,-0.282353 0.107487,-0.451652 0,-0.169298 -0.03575,-0.318908 -0.107487,-0.448034 -0.07174,-0.131996 -0.169619,-0.233672 -0.293005,-0.305408 -0.123386,-0.07174 -0.260813,-0.107487 -0.412896,-0.107487 z m -8.250141,0.189136 -0.387573,0.964282 h 0.774629 z"
         id="rect943"
         inkscape:connector-curvature="0" />
    </g>
  </g>
</svg>
